<svg width="100" height="25" viewBox="0 0 100 25" fill="none" xmlns="http://www.w3.org/2000/svg">
<path d="M19.82 2H4.18C2.97602 2 2 2.97602 2 4.18V19.82C2 21.024 2.97602 22 4.18 22H19.82C21.024 22 22 21.024 22 19.82V4.18C22 2.97602 21.024 2 19.82 2Z" stroke="#FF6347" stroke-width="2" stroke-linecap="round" stroke-linejoin="round"/>
<path d="M7 2V22" stroke="#FF6347" stroke-width="2" stroke-linecap="round" stroke-linejoin="round"/>
<path d="M17 2V22" stroke="#FF6347" stroke-width="2" stroke-linecap="round" stroke-linejoin="round"/>
<path d="M2 12H22" stroke="#FF6347" stroke-width="2" stroke-linecap="round" stroke-linejoin="round"/>
<path d="M2 7H7" stroke="#FF6347" stroke-width="2" stroke-linecap="round" stroke-linejoin="round"/>
<path d="M2 17H7" stroke="#FF6347" stroke-width="2" stroke-linecap="round" stroke-linejoin="round"/>
<path d="M17 17H22" stroke="#FF6347" stroke-width="2" stroke-linecap="round" stroke-linejoin="round"/>
<path d="M17 7H22" stroke="#FF6347" stroke-width="2" stroke-linecap="round" stroke-linejoin="round"/>
<path d="M33.5 12.56C33.7533 12.56 33.88 13.0267 33.88 13.96C33.88 14.24 33.8467 14.5733 33.78 14.96C33.7267 15.3333 33.62 15.52 33.46 15.52H30.92V17.52H34.6C34.8267 17.52 34.98 17.8133 35.06 18.4C35.1 18.6533 35.12 18.9267 35.12 19.22C35.12 19.5 35.08 19.8667 35 20.32C34.92 20.7733 34.7867 21 34.6 21H27.76C27.2533 21 27 20.7933 27 20.38V7.52C27 7.17333 27.1533 7 27.46 7H34.62C34.9 7 35.04 7.59333 35.04 8.78C35.04 9.95333 34.9 10.54 34.62 10.54H30.92V12.56H33.5ZM42.7633 11.06C42.8166 10.9533 43.1499 10.9 43.7633 10.9C45.7633 10.9 46.7366 10.9733 46.6833 11.12L44.2433 16.18C45.8833 19.2467 46.7033 20.78 46.7033 20.78C46.7033 20.86 46.3033 20.9267 45.5033 20.98C44.7033 21.0333 44.1366 21.06 43.8033 21.06C42.9633 21.06 42.5166 20.9733 42.4633 20.8L41.3833 17.46L40.1433 20.94C40.1166 21.0333 39.7366 21.08 39.0033 21.08C38.2699 21.08 37.6166 21.0533 37.0433 21C36.4699 20.9467 36.2099 20.88 36.2633 20.8L38.5233 16.2C36.9499 12.9067 36.1633 11.2533 36.1633 11.24C36.1633 11.16 36.3633 11.0867 36.7633 11.02C37.1766 10.9533 37.6366 10.92 38.1433 10.92C38.6633 10.92 39.1566 10.9467 39.6233 11C40.0899 11.04 40.3499 11.1 40.4033 11.18L41.4633 14.42L42.7633 11.06ZM53.8961 11.06C53.9494 10.9533 54.2828 10.9 54.8961 10.9C56.8961 10.9 57.8694 10.9733 57.8161 11.12L55.3761 16.18C57.0161 19.2467 57.8361 20.78 57.8361 20.78C57.8361 20.86 57.4361 20.9267 56.6361 20.98C55.8361 21.0333 55.2694 21.06 54.9361 21.06C54.0961 21.06 53.6494 20.9733 53.5961 20.8L52.5161 17.46L51.2761 20.94C51.2494 21.0333 50.8694 21.08 50.1361 21.08C49.4028 21.08 48.7494 21.0533 48.1761 21C47.6028 20.9467 47.3428 20.88 47.3961 20.8L49.6561 16.2C48.0828 12.9067 47.2961 11.2533 47.2961 11.24C47.2961 11.16 47.4961 11.0867 47.8961 11.02C48.3094 10.9533 48.7694 10.92 49.2761 10.92C49.7961 10.92 50.2894 10.9467 50.7561 11C51.2228 11.04 51.4828 11.1 51.5361 11.18L52.5961 14.42L53.8961 11.06ZM68.0889 20.9C68.0889 20.9933 67.5156 21.04 66.3689 21.04C65.2356 21.04 64.6689 20.98 64.6689 20.86V15.04C64.6689 14.3733 64.4489 14.04 64.0089 14.04C63.7822 14.04 63.4822 14.1867 63.1089 14.48V20.88C63.1089 21.0133 62.5356 21.08 61.3889 21.08C60.2556 21.08 59.6889 21.0067 59.6889 20.86V14.32H59.1889C58.7489 14.32 58.5289 13.86 58.5289 12.94C58.5289 12.5267 58.6089 12.1067 58.7689 11.68C58.9822 11.0933 59.3289 10.8 59.8089 10.8C60.2889 10.8 60.7489 10.9267 61.1889 11.18C61.6422 11.4333 61.9156 11.6733 62.0089 11.9C62.8356 11.1667 63.7489 10.8 64.7489 10.8C65.7622 10.8 66.5756 11.1133 67.1889 11.74C67.9089 11.1133 68.7756 10.8 69.7889 10.8C71.9889 10.8 73.0889 12.14 73.0889 14.82V20.9C73.0889 20.9933 72.5156 21.04 71.3689 21.04C70.2356 21.04 69.6689 20.98 69.6689 20.86V15.04C69.6689 14.3733 69.4489 14.04 69.0089 14.04C68.7689 14.04 68.4622 14.1867 68.0889 14.48V20.9ZM75.6506 19.82C74.824 18.9 74.4106 17.6267 74.4106 16C74.4106 14.3733 74.824 13.1 75.6506 12.18C76.4906 11.26 77.6173 10.8 79.0306 10.8C80.444 10.8 81.564 11.26 82.3906 12.18C83.2173 13.1 83.6306 14.3733 83.6306 16C83.6306 17.6267 83.2173 18.9 82.3906 19.82C81.564 20.74 80.444 21.2 79.0306 21.2C77.6173 21.2 76.4906 20.74 75.6506 19.82ZM79.0306 14.14C78.284 14.14 77.9106 14.7533 77.9106 15.98C77.9106 17.2067 78.284 17.82 79.0306 17.82C79.7906 17.82 80.1706 17.2067 80.1706 15.98C80.1706 14.7533 79.7906 14.14 79.0306 14.14ZM89.2245 20.88C89.2245 20.9733 88.7445 21.02 87.7845 21.02C86.4512 20.98 85.7845 20.9067 85.7845 20.8V14.32H85.2645C84.9179 14.32 84.6912 14.0267 84.5845 13.44C84.5579 13.2667 84.5445 13.0933 84.5445 12.92C84.5445 12.5067 84.6245 12.0933 84.7845 11.68C85.0245 11.0933 85.3979 10.8 85.9045 10.8C86.4112 10.8 86.8645 10.92 87.2645 11.16C87.6645 11.4 87.9312 11.64 88.0645 11.88C88.9045 11.16 89.9045 10.8 91.0645 10.8C92.2245 10.8 93.0645 11.1133 93.5845 11.74C94.1045 12.3667 94.3645 13.3933 94.3645 14.82V20.82C94.3645 20.98 93.7912 21.06 92.6445 21.06C91.5112 21.06 90.9445 20.98 90.9445 20.82V15.04C90.9445 14.3733 90.7112 14.04 90.2445 14.04C90.1112 14.04 89.9245 14.1 89.6845 14.22C89.4445 14.3267 89.2912 14.4067 89.2245 14.46V20.88ZM99.3402 21.06C99.3402 21.1533 98.7068 21.2 97.4402 21.2C96.1868 21.2 95.5602 21.16 95.5602 21.08V17.48C95.5602 17.36 96.1868 17.3 97.4402 17.3C98.7068 17.3 99.3402 17.3333 99.3402 17.4V21.06Z" fill="#FF6347"/>
</svg>
